<svg width="60" height="61" viewBox="0 0 60 61" fill="none" xmlns="http://www.w3.org/2000/svg">
<circle opacity="0.6" cx="30" cy="30.6475" r="30" fill="#E2ECFF"/>
<path fill-rule="evenodd" clip-rule="evenodd" d="M33.2428 23.385C33.2428 25.606 35.0459 27.4065 37.2702 27.4065C37.5151 27.4053 37.7594 27.3818 38 27.3362V35.3089C38 38.6631 36.0215 40.6475 32.6624 40.6475H25.3464C21.9785 40.6475 20 38.6631 20 35.3089V28.0036C20 24.6494 21.9785 22.6475 25.3464 22.6475H33.3131C33.2659 22.8905 33.2423 23.1375 33.2428 23.385ZM31.15 33.544L34.0078 29.8562V29.8387C34.2525 29.5099 34.1901 29.0464 33.8671 28.7938C33.7108 28.6731 33.5122 28.6209 33.3167 28.649C33.1211 28.6772 32.9453 28.7833 32.8295 28.9431L30.4201 32.0426L27.6766 29.8826C27.52 29.7606 27.3207 29.7067 27.1238 29.7331C26.9269 29.7595 26.749 29.8641 26.6302 30.0231L23.6756 33.8338C23.5718 33.9633 23.5159 34.1245 23.5173 34.2904C23.5002 34.6256 23.7119 34.9301 24.0324 35.0313C24.3529 35.1324 24.7014 35.0048 24.8803 34.7206L27.3512 31.5245L30.0948 33.6758C30.2508 33.8016 30.4514 33.8586 30.6504 33.8338C30.8494 33.8089 31.0297 33.7043 31.15 33.544Z" fill="#5E81F4"/>
<circle opacity="0.4" cx="37.5" cy="23.1475" r="2.5" fill="#5E81F4"/>
</svg>
