<svg width="60" height="60" viewBox="0 0 60 60" fill="none" xmlns="http://www.w3.org/2000/svg">
<circle opacity="0.6" cx="30" cy="30" r="30" fill="#DCF4EC"/>
<path opacity="0.4" d="M34.1701 28.06H25.8301C24.6501 28.06 24.2401 27.27 24.9301 26.31L29.1001 20.47C29.5901 19.77 30.4101 19.77 30.9001 20.47L35.0701 26.31C35.7601 27.27 35.3501 28.06 34.1701 28.06Z" fill="#17BD8D"/>
<path d="M35.5901 36H24.4101C22.8301 36 22.2901 34.95 23.2201 33.67L27.2101 28.06H32.7901L36.7801 33.67C37.7101 34.95 37.1701 36 35.5901 36Z" fill="#17BD8D"/>
<path d="M30.75 36V40C30.75 40.41 30.41 40.75 30 40.75C29.59 40.75 29.25 40.41 29.25 40V36H30.75Z" fill="#17BD8D"/>
</svg>
