<svg width="60" height="61" viewBox="0 0 60 61" fill="none" xmlns="http://www.w3.org/2000/svg">
<circle opacity="0.6" cx="30" cy="30.6475" r="30" fill="#FFECEB"/>
<path d="M34.6203 40.6475H25.3797C22.6892 40.6475 20.5 38.4785 20.5 35.812V30.4829C20.5 27.8164 22.6892 25.6475 25.3797 25.6475H34.6203C37.3108 25.6475 39.5 27.8164 39.5 30.4829V35.812C39.5 38.4785 37.3108 40.6475 34.6203 40.6475Z" fill="#FF7979"/>
<path opacity="0.4" d="M33.7551 28.6475C33.344 28.6475 33.0103 28.3238 33.0103 27.925V25.0044C33.0103 23.3986 31.6635 22.0924 30.0089 22.0924C29.2472 22.0924 28.4477 22.3891 27.8786 22.9352C27.3085 23.4833 26.9927 24.2125 26.9897 24.9909V27.925C26.9897 28.3238 26.656 28.6475 26.2449 28.6475C25.8337 28.6475 25.5 28.3238 25.5 27.925V25.0044C25.505 23.8205 25.9777 22.7281 26.8298 21.9103C27.681 21.0906 28.7814 20.6792 30.0119 20.6475C32.4849 20.6475 34.5 22.6019 34.5 25.0044V27.925C34.5 28.3238 34.1663 28.6475 33.7551 28.6475Z" fill="#FF7979"/>
</svg>
