<svg width="60" height="60" viewBox="0 0 60 60" fill="none" xmlns="http://www.w3.org/2000/svg">
<circle opacity="0.6" cx="30" cy="30" r="30" fill="#FFF2DE"/>
<path d="M39.25 40H20.75C20.34 40 20 39.66 20 39.25C20 38.84 20.34 38.5 20.75 38.5H39.25C39.66 38.5 40 38.84 40 39.25C40 39.66 39.66 40 39.25 40Z" fill="#FFA114"/>
<path opacity="0.4" d="M38.5899 31.7L31.3599 38.93C29.9399 40.35 27.6499 40.35 26.2399 38.94L21.6299 34.33L33.9899 21.97L38.5999 26.58C40.0099 27.99 40.0099 30.28 38.5899 31.7Z" fill="#FFA114"/>
<path d="M33.9901 21.97L21.6201 34.33L20.7101 33.42C19.3001 32.01 19.3001 29.72 20.7201 28.3L27.9501 21.07C29.3701 19.65 31.6601 19.65 33.0701 21.06L33.9901 21.97Z" fill="#FFA114"/>
<path d="M30.8901 35.6L29.5401 36.95C29.2601 37.23 28.8101 37.23 28.5301 36.95C28.2501 36.67 28.2501 36.22 28.5301 35.94L29.8801 34.59C30.1601 34.31 30.6101 34.31 30.8901 34.59C31.1701 34.87 31.1701 35.32 30.8901 35.6Z" fill="#FFA114"/>
<path d="M35.2701 31.22L32.5801 33.91C32.3001 34.19 31.8501 34.19 31.5701 33.91C31.2901 33.63 31.2901 33.18 31.5701 32.9L34.2601 30.21C34.5401 29.93 34.9901 29.93 35.2701 30.21C35.5401 30.49 35.5401 30.94 35.2701 31.22Z" fill="#FFA114"/>
</svg>
