<svg width="39" height="39" viewBox="0 0 39 39" fill="none" xmlns="http://www.w3.org/2000/svg">
<g clip-path="url(#clip0_132_2970)">
<path d="M0.19043 5.67475L0 5.85756V13.2462V20.6349L0.182813 20.8482L0.365625 21.0615L3.83906 21.0843L7.3125 21.1072V27.1247V33.1423L7.50293 33.3251C7.72383 33.5537 8.0666 33.5765 8.2875 33.3861C8.37129 33.3099 10.2451 30.4078 12.4465 26.9343L16.4531 20.6197V13.2386V5.85756L16.2627 5.67475L16.0799 5.48432H8.22656H0.373242L0.19043 5.67475ZM15.2344 13.4824V20.2693L11.8828 25.5328L8.53125 30.8038V25.5328V20.2693L8.34844 20.056L8.16563 19.8427L4.69219 19.8199L1.21875 19.797V13.2539V6.70307H8.22656H15.2344V13.4824Z" fill="#603EFF"/>
<path d="M22.7373 5.67475L22.5469 5.85756V13.2462V20.6349L22.7297 20.8482L22.9125 21.0615L26.3859 21.0843L29.8594 21.1072V27.1247V33.1423L30.0498 33.3251C30.2707 33.5537 30.6135 33.5765 30.8344 33.3861C30.9182 33.3099 32.792 30.4078 34.9934 26.9343L39 20.6197V13.2386V5.85756L38.8096 5.67475L38.6268 5.48432H30.7734H22.9201L22.7373 5.67475ZM37.7812 13.4824V20.2693L34.4297 25.5328L31.0781 30.8038V25.5328V20.2693L30.8953 20.056L30.7125 19.8427L27.2391 19.8199L23.7656 19.797V13.2539V6.70307H30.7734H37.7812V13.4824Z" fill="#603EFF"/>
</g>
<defs>
<clipPath id="clip0_132_2970">
<rect width="39" height="39" fill="white"/>
</clipPath>
</defs>
</svg>
