<svg width="18" height="18" viewBox="0 0 18 18" fill="none" xmlns="http://www.w3.org/2000/svg">
<g clip-path="url(#clip0_196_6049)">
<path d="M8.36657 12.2336C8.16306 12.2336 7.98214 12.1431 7.86908 12.0075L4.4545 8.2989C4.20575 8.02756 4.22839 7.59789 4.49973 7.34914C4.77107 7.1004 5.20074 7.12303 5.44948 7.39437L8.38917 10.5828L16.5299 2.46471C16.8012 2.19336 17.2309 2.19336 17.4797 2.46471C17.7284 2.73605 17.751 3.16572 17.4797 3.41446L8.84147 12.0301C8.72838 12.1658 8.5475 12.2336 8.36657 12.2336Z" fill="#17BD8D"/>
<path d="M9.00002 18C4.04773 18 0 13.9523 0 9.00002C0 4.04777 4.04773 0 9.00002 0C9.38446 0 9.67839 0.293977 9.67839 0.678372C9.67839 1.06277 9.38442 1.35674 9.00002 1.35674C4.79397 1.35674 1.35679 4.79392 1.35679 8.99998C1.35679 13.206 4.79397 16.6432 9.00002 16.6432C13.2061 16.6432 16.6433 13.206 16.6433 8.99998C16.6433 8.61554 16.9372 8.32161 17.3216 8.32161C17.706 8.32161 18 8.61558 18 8.99998C18 13.9523 13.9523 18 9.00002 18Z" fill="#17BD8D"/>
</g>
<defs>
<clipPath id="clip0_196_6049">
<rect width="18" height="18" fill="white"/>
</clipPath>
</defs>
</svg>
