<svg width="180" height="43" viewBox="0 0 180 43" fill="none" xmlns="http://www.w3.org/2000/svg">
<path d="M70.2808 33.0871C68.9513 33.0871 67.7407 32.8986 66.6493 32.5216C65.5777 32.1445 64.6946 31.6583 64 31.063L64.2381 26.1812H64.5358C65.3296 27.1933 66.173 27.997 67.066 28.5923C67.959 29.1678 68.9612 29.4556 70.0725 29.4556C70.906 29.4556 71.5807 29.2273 72.0966 28.7709C72.6126 28.2946 72.8706 27.6497 72.8706 26.8361C72.8706 26.2407 72.7317 25.7446 72.4538 25.3477C72.176 24.931 71.789 24.5837 71.2929 24.3059C70.8167 24.0082 70.1122 23.6411 69.1795 23.2045C67.5125 22.4305 66.2524 21.5673 65.3991 20.6148C64.5656 19.6622 64.1488 18.5013 64.1488 17.132C64.1488 15.981 64.4366 14.9689 65.0121 14.0958C65.5876 13.2226 66.3516 12.5578 67.3041 12.1014C68.2567 11.645 69.2886 11.4167 70.3999 11.4167C72.6821 11.4167 74.4085 11.9426 75.5794 12.9944L75.7282 17.4297H75.3412C73.7735 15.723 72.1562 14.8697 70.4892 14.8697C69.6954 14.8697 69.0703 15.0483 68.6139 15.4055C68.1575 15.7429 67.9292 16.2588 67.9292 16.9534C67.9292 17.5884 68.2269 18.1342 68.8223 18.5906C69.4374 19.047 70.5487 19.6523 72.1562 20.4064C73.7834 21.1605 75.0138 22.0237 75.8473 22.9961C76.6808 23.9487 77.0975 25.1989 77.0975 26.7468C77.0975 27.9771 76.8097 29.0785 76.2343 30.0509C75.6786 31.0034 74.8848 31.7476 73.8529 32.2834C72.821 32.8192 71.6303 33.0871 70.2808 33.0871Z" fill="white"/>
<path d="M86.3376 33.0871C85.1469 33.0871 83.9959 32.7696 82.8846 32.1346C81.7932 31.4996 80.9002 30.5966 80.2056 29.4258C79.5309 28.2351 79.1935 26.8658 79.1935 25.3179C79.1935 23.909 79.5209 22.6091 80.1758 21.4185C80.8307 20.2278 81.7237 19.2852 82.8549 18.5906C83.986 17.896 85.2263 17.5487 86.5757 17.5487C87.5283 17.5487 88.3915 17.7075 89.1655 18.025C89.9593 18.3425 90.5645 18.7692 90.9813 19.305V17.9655H94.9105V32.6704H90.9813V31.3309C90.3661 31.9064 89.7112 32.343 89.0166 32.6406C88.3221 32.9383 87.4291 33.0871 86.3376 33.0871ZM87.1413 29.4556C88.3518 29.4556 89.3242 29.0587 90.0585 28.2649C90.7927 27.4711 91.1599 26.4888 91.1599 25.3179C91.1599 24.1471 90.7927 23.1648 90.0585 22.371C89.3242 21.5772 88.3518 21.1803 87.1413 21.1803C85.9308 21.1803 84.9584 21.5772 84.2241 22.371C83.4899 23.1648 83.1228 24.1471 83.1228 25.3179C83.1228 26.4888 83.4899 27.4711 84.2241 28.2649C84.9584 29.0587 85.9308 29.4556 87.1413 29.4556Z" fill="white"/>
<path d="M104.739 33.0871C103.548 33.0871 102.397 32.7696 101.286 32.1346C100.194 31.4996 99.3011 30.5966 98.6065 29.4258C97.9318 28.2351 97.5944 26.8658 97.5944 25.3179C97.5944 23.909 97.9219 22.6091 98.5767 21.4185C99.2316 20.2278 100.125 19.2852 101.256 18.5906C102.387 17.896 103.627 17.5487 104.977 17.5487C105.929 17.5487 106.792 17.7075 107.566 18.025C108.36 18.3425 108.965 18.7692 109.382 19.305V17.9655H113.311V32.6704H109.382V31.3309C108.767 31.9064 108.112 32.343 107.418 32.6406C106.723 32.9383 105.83 33.0871 104.739 33.0871ZM105.542 29.4556C106.753 29.4556 107.725 29.0587 108.459 28.2649C109.194 27.4711 109.561 26.4888 109.561 25.3179C109.561 24.1471 109.194 23.1648 108.459 22.371C107.725 21.5772 106.753 21.1803 105.542 21.1803C104.332 21.1803 103.359 21.5772 102.625 22.371C101.891 23.1648 101.524 24.1471 101.524 25.3179C101.524 26.4888 101.891 27.4711 102.625 28.2649C103.359 29.0587 104.332 29.4556 105.542 29.4556Z" fill="white"/>
<path d="M122.693 33.0871C121.363 33.0871 120.153 32.8986 119.061 32.5216C117.99 32.1445 117.107 31.6583 116.412 31.063L116.65 26.1812H116.948C117.742 27.1933 118.585 27.997 119.478 28.5923C120.371 29.1678 121.373 29.4556 122.485 29.4556C123.318 29.4556 123.993 29.2273 124.509 28.7709C125.025 28.2946 125.283 27.6497 125.283 26.8361C125.283 26.2407 125.144 25.7446 124.866 25.3477C124.588 24.931 124.201 24.5837 123.705 24.3059C123.229 24.0082 122.524 23.6411 121.592 23.2045C119.925 22.4305 118.664 21.5673 117.811 20.6148C116.978 19.6622 116.561 18.5013 116.561 17.132C116.561 15.981 116.849 14.9689 117.424 14.0958C118 13.2226 118.764 12.5578 119.716 12.1014C120.669 11.645 121.701 11.4167 122.812 11.4167C125.094 11.4167 126.821 11.9426 127.991 12.9944L128.14 17.4297H127.753C126.186 15.723 124.568 14.8697 122.901 14.8697C122.107 14.8697 121.482 15.0483 121.026 15.4055C120.57 15.7429 120.341 16.2588 120.341 16.9534C120.341 17.5884 120.639 18.1342 121.234 18.5906C121.85 19.047 122.961 19.6523 124.568 20.4064C126.196 21.1605 127.426 22.0237 128.259 22.9961C129.093 23.9487 129.51 25.1989 129.51 26.7468C129.51 27.9771 129.222 29.0785 128.646 30.0509C128.091 31.0034 127.297 31.7476 126.265 32.2834C125.233 32.8192 124.042 33.0871 122.693 33.0871Z" fill="white"/>
<path d="M134.314 15.9413C133.64 15.9413 133.064 15.7032 132.588 15.2269C132.112 14.7506 131.873 14.1752 131.873 13.5004C131.873 12.8059 132.112 12.2204 132.588 11.7442C133.064 11.2481 133.64 11 134.314 11C135.009 11 135.594 11.2481 136.071 11.7442C136.567 12.2204 136.815 12.8059 136.815 13.5004C136.815 14.1752 136.567 14.7506 136.071 15.2269C135.594 15.7032 135.009 15.9413 134.314 15.9413ZM132.38 17.9655H136.309V32.6704H132.38V17.9655Z" fill="white"/>
<path d="M144.824 33.0871C143.216 33.0871 141.936 32.6605 140.984 31.8072C140.051 30.934 139.585 29.6639 139.585 27.997V17.9655H143.514V26.5979C143.514 27.5505 143.762 28.2649 144.258 28.7412C144.774 29.2174 145.459 29.4556 146.312 29.4556C147.284 29.4556 148.078 29.1083 148.693 28.4137C149.328 27.6993 149.646 26.7468 149.646 25.5561V17.9655H153.575V32.6704H149.646V30.8546C149.11 31.5293 148.406 32.0751 147.532 32.4918C146.679 32.8887 145.776 33.0871 144.824 33.0871Z" fill="white"/>
<path d="M157.03 17.9655H160.96V19.7813C161.416 19.1264 162.081 18.5906 162.954 18.1739C163.827 17.7571 164.71 17.5487 165.603 17.5487C166.615 17.5487 167.488 17.7274 168.223 18.0846C168.977 18.4219 169.542 18.9379 169.919 19.6324C170.574 18.9379 171.309 18.4219 172.122 18.0846C172.956 17.7274 173.908 17.5487 174.98 17.5487C176.409 17.5487 177.55 17.9655 178.403 18.799C179.256 19.6324 179.683 20.7735 179.683 22.2222V32.6704H175.754V23.7998C175.754 22.9267 175.555 22.2718 175.158 21.8352C174.781 21.3986 174.226 21.1803 173.492 21.1803C172.618 21.1803 171.874 21.5177 171.259 22.1924C170.644 22.8473 170.336 23.7006 170.336 24.7524V32.6704H166.407V23.7998C166.407 22.0535 165.643 21.1803 164.115 21.1803C163.242 21.1803 162.498 21.5276 161.882 22.2222C161.267 22.9167 160.96 23.8097 160.96 24.9012V32.6704H157.03V17.9655Z" fill="white"/>
<path d="M32.3495 3.85044L19.0545 16.9682C18.5109 17.5045 18.7585 18.4344 19.4829 18.6762C37.0615 24.5433 26.832 34.9424 22.0123 40.3313C21.419 40.9946 21.9731 41.913 22.8411 41.717C37.4197 38.4247 42.17 27.542 42.17 20.7604C42.17 12.8249 37.3191 6.80387 33.642 3.77813C33.2589 3.46284 32.7027 3.50194 32.3495 3.85044Z" fill="white"/>
<path d="M12.1971 41.6151L22.2404 30.6056C22.7479 30.0494 22.488 29.1318 21.7926 28.8431C18.9245 27.6524 14.7075 24.8695 12.9873 19.9567C10.597 13.1303 19.2252 6.87606 24.6502 1.7214C25.2237 1.17647 24.9249 0.242676 24.1392 0.1509C11.3188 -1.3465 0.643029 8.47178 0.0238081 21.9761C-0.468143 32.7048 6.7798 39.4348 11.0298 41.8212C11.4178 42.039 11.8973 41.9438 12.1971 41.6151Z" fill="#603EFF"/>
</svg>
