<svg width="30" height="30" viewBox="0 0 30 30" fill="none" xmlns="http://www.w3.org/2000/svg">
<rect opacity="0.8" x="0.5" y="29.5" width="29" height="29" rx="14.5" transform="rotate(-90 0.5 29.5)" stroke="#3B3945"/>
<g clip-path="url(#clip0_49_1544)">
<path d="M8.01683 17.884C8.04963 18.6278 8.16992 19.1392 8.34224 19.5824C8.52001 20.0528 8.7935 20.4739 9.15182 20.824C9.50191 21.1795 9.92582 21.4558 10.3907 21.6308C10.8365 21.8031 11.3452 21.9234 12.0891 21.9562C12.8385 21.9918 13.0764 22 14.9772 22C16.8779 22 17.1158 21.9918 17.8625 21.959C18.6064 21.9262 19.1178 21.8058 19.5608 21.6336C20.0313 21.4558 20.4524 21.1823 20.8025 20.824C21.158 20.4739 21.4342 20.05 21.6093 19.5851C21.7816 19.1392 21.9019 18.6306 21.9347 17.8867C21.9703 17.1373 21.9785 16.8994 21.9785 14.9986C21.9785 13.0979 21.9703 12.86 21.9375 12.1133C21.9047 11.3694 21.7843 10.858 21.612 10.4149C21.4342 9.9445 21.158 9.52337 20.8025 9.17328C20.4524 8.81774 20.0285 8.54147 19.5636 8.36648C19.1178 8.19416 18.6091 8.07386 17.8652 8.04107C17.1186 8.00816 16.8806 8.00004 14.9798 8.00004C13.0791 8.00004 12.8412 8.00816 12.0945 8.04107C11.3506 8.07386 10.8392 8.19416 10.3962 8.36648C9.45533 8.73024 8.71145 9.47412 8.34769 10.4149C8.17548 10.8607 8.05508 11.3694 8.02228 12.1133C7.98948 12.86 7.98126 13.0979 7.98126 14.9986C7.98126 16.8994 7.98404 17.1373 8.01683 17.884ZM9.27756 12.168C9.30768 11.4843 9.42253 11.1151 9.51825 10.8689C9.7535 10.259 10.2376 9.77496 10.8475 9.53971C11.0936 9.44399 11.4655 9.32914 12.1465 9.29912C12.885 9.26622 13.1064 9.2581 14.9744 9.2581C16.8423 9.2581 17.0666 9.26622 17.8023 9.29912C18.4861 9.32914 18.8553 9.44399 19.1014 9.53971C19.4049 9.65188 19.6812 9.82965 19.9054 10.0621C20.1379 10.2891 20.3157 10.5626 20.4278 10.8661C20.5236 11.1123 20.6384 11.4843 20.6684 12.1652C20.7013 12.9036 20.7095 13.1252 20.7095 14.9932C20.7095 16.8611 20.7013 17.0854 20.6684 17.821C20.6384 18.5048 20.5236 18.874 20.4278 19.1201C20.3157 19.4237 20.1379 19.6999 19.9027 19.9242C19.6757 20.1567 19.4023 20.3345 19.0986 20.4466C18.8525 20.5423 18.4805 20.6571 17.7996 20.6872C17.0611 20.72 16.8396 20.7283 14.9717 20.7283C13.101 20.7283 12.8795 20.72 12.1438 20.6872C11.46 20.6571 11.0908 20.5423 10.8447 20.4466C10.5412 20.3345 10.2649 20.1567 10.0407 19.9242C9.80819 19.6972 9.63043 19.4237 9.51825 19.1201C9.42253 18.874 9.30769 18.5021 9.27756 17.821C9.24476 17.0826 9.23654 16.8611 9.23654 14.9932C9.23654 13.1252 9.24476 12.9064 9.27756 12.168Z" fill="white"/>
<path d="M14.9739 18.5947C16.9594 18.5947 18.5703 16.9839 18.5703 14.9983C18.5703 13.0127 16.9594 11.4019 14.9739 11.4019C12.9883 11.4019 11.3775 13.0127 11.3775 14.9983C11.3775 16.9839 12.9883 18.5947 14.9739 18.5947ZM14.9739 12.6654C16.262 12.6654 17.3068 13.7101 17.3068 14.9983C17.3068 16.2865 16.262 17.3312 14.9739 17.3312C13.6857 17.3312 12.641 16.2865 12.641 14.9983C12.641 13.7101 13.6857 12.6654 14.9739 12.6654Z" fill="white"/>
<path d="M10.3959 18.7366C10.3959 18.2729 10.7718 17.897 11.2356 17.897C11.6992 17.897 12.0752 18.2729 12.0752 18.7366C12.0752 19.2003 11.6992 19.5762 11.2356 19.5762C10.7718 19.5762 10.3959 19.2003 10.3959 18.7366Z" fill="white"/>
</g>
<defs>
<clipPath id="clip0_49_1544">
<rect x="22" y="22" width="14" height="14" transform="rotate(180 22 22)" fill="white"/>
</clipPath>
</defs>
</svg>
