<svg width="140" height="35" viewBox="0 0 140 35" fill="none" xmlns="http://www.w3.org/2000/svg">
<path d="M50.168 26.836C49.096 26.836 48.12 26.684 47.24 26.38C46.376 26.076 45.664 25.684 45.104 25.204L45.296 21.268H45.536C46.176 22.084 46.856 22.732 47.576 23.212C48.296 23.676 49.104 23.908 50 23.908C50.672 23.908 51.216 23.724 51.632 23.356C52.048 22.972 52.256 22.452 52.256 21.796C52.256 21.316 52.144 20.916 51.92 20.596C51.696 20.26 51.384 19.98 50.984 19.756C50.6 19.516 50.032 19.22 49.28 18.868C47.936 18.244 46.92 17.548 46.232 16.78C45.56 16.012 45.224 15.076 45.224 13.972C45.224 13.044 45.456 12.228 45.92 11.524C46.384 10.82 47 10.284 47.768 9.916C48.536 9.548 49.368 9.364 50.264 9.364C52.104 9.364 53.496 9.788 54.44 10.636L54.56 14.212H54.248C52.984 12.836 51.68 12.148 50.336 12.148C49.696 12.148 49.192 12.292 48.824 12.58C48.456 12.852 48.272 13.268 48.272 13.828C48.272 14.34 48.512 14.78 48.992 15.148C49.488 15.516 50.384 16.004 51.68 16.612C52.992 17.22 53.984 17.916 54.656 18.7C55.328 19.468 55.664 20.476 55.664 21.724C55.664 22.716 55.432 23.604 54.968 24.388C54.52 25.156 53.88 25.756 53.048 26.188C52.216 26.62 51.256 26.836 50.168 26.836ZM63.1139 26.836C62.1539 26.836 61.2259 26.58 60.3299 26.068C59.4499 25.556 58.7299 24.828 58.1699 23.884C57.6259 22.924 57.3539 21.82 57.3539 20.572C57.3539 19.436 57.6179 18.388 58.1459 17.428C58.6739 16.468 59.3939 15.708 60.3059 15.148C61.2179 14.588 62.2179 14.308 63.3059 14.308C64.0739 14.308 64.7699 14.436 65.3939 14.692C66.0339 14.948 66.5219 15.292 66.8579 15.724V14.644H70.0259V26.5H66.8579V25.42C66.3619 25.884 65.8339 26.236 65.2739 26.476C64.7139 26.716 63.9939 26.836 63.1139 26.836ZM63.7619 23.908C64.7379 23.908 65.5219 23.588 66.1139 22.948C66.7059 22.308 67.0019 21.516 67.0019 20.572C67.0019 19.628 66.7059 18.836 66.1139 18.196C65.5219 17.556 64.7379 17.236 63.7619 17.236C62.7859 17.236 62.0019 17.556 61.4099 18.196C60.8179 18.836 60.5219 19.628 60.5219 20.572C60.5219 21.516 60.8179 22.308 61.4099 22.948C62.0019 23.588 62.7859 23.908 63.7619 23.908ZM77.9499 26.836C76.9899 26.836 76.0619 26.58 75.1659 26.068C74.2859 25.556 73.5659 24.828 73.0059 23.884C72.4619 22.924 72.1899 21.82 72.1899 20.572C72.1899 19.436 72.4539 18.388 72.9819 17.428C73.5099 16.468 74.2299 15.708 75.1419 15.148C76.0539 14.588 77.0539 14.308 78.1419 14.308C78.9099 14.308 79.6059 14.436 80.2299 14.692C80.8699 14.948 81.3579 15.292 81.6939 15.724V14.644H84.8619V26.5H81.6939V25.42C81.1979 25.884 80.6699 26.236 80.1099 26.476C79.5499 26.716 78.8299 26.836 77.9499 26.836ZM78.5979 23.908C79.5739 23.908 80.3579 23.588 80.9499 22.948C81.5419 22.308 81.8379 21.516 81.8379 20.572C81.8379 19.628 81.5419 18.836 80.9499 18.196C80.3579 17.556 79.5739 17.236 78.5979 17.236C77.6219 17.236 76.8379 17.556 76.2459 18.196C75.6539 18.836 75.3579 19.628 75.3579 20.572C75.3579 21.516 75.6539 22.308 76.2459 22.948C76.8379 23.588 77.6219 23.908 78.5979 23.908ZM92.4258 26.836C91.3538 26.836 90.3778 26.684 89.4978 26.38C88.6338 26.076 87.9218 25.684 87.3618 25.204L87.5538 21.268H87.7938C88.4338 22.084 89.1138 22.732 89.8338 23.212C90.5538 23.676 91.3618 23.908 92.2578 23.908C92.9298 23.908 93.4738 23.724 93.8898 23.356C94.3058 22.972 94.5138 22.452 94.5138 21.796C94.5138 21.316 94.4018 20.916 94.1778 20.596C93.9538 20.26 93.6418 19.98 93.2418 19.756C92.8578 19.516 92.2898 19.22 91.5378 18.868C90.1938 18.244 89.1778 17.548 88.4898 16.78C87.8178 16.012 87.4818 15.076 87.4818 13.972C87.4818 13.044 87.7138 12.228 88.1778 11.524C88.6418 10.82 89.2578 10.284 90.0258 9.916C90.7938 9.548 91.6258 9.364 92.5218 9.364C94.3618 9.364 95.7538 9.788 96.6978 10.636L96.8178 14.212H96.5058C95.2418 12.836 93.9378 12.148 92.5938 12.148C91.9538 12.148 91.4498 12.292 91.0818 12.58C90.7138 12.852 90.5298 13.268 90.5298 13.828C90.5298 14.34 90.7698 14.78 91.2498 15.148C91.7458 15.516 92.6418 16.004 93.9378 16.612C95.2498 17.22 96.2418 17.916 96.9138 18.7C97.5858 19.468 97.9218 20.476 97.9218 21.724C97.9218 22.716 97.6898 23.604 97.2258 24.388C96.7778 25.156 96.1378 25.756 95.3058 26.188C94.4738 26.62 93.5138 26.836 92.4258 26.836ZM101.796 13.012C101.252 13.012 100.788 12.82 100.404 12.436C100.02 12.052 99.8278 11.588 99.8278 11.044C99.8278 10.484 100.02 10.012 100.404 9.628C100.788 9.228 101.252 9.028 101.796 9.028C102.356 9.028 102.828 9.228 103.212 9.628C103.612 10.012 103.812 10.484 103.812 11.044C103.812 11.588 103.612 12.052 103.212 12.436C102.828 12.82 102.356 13.012 101.796 13.012ZM100.236 14.644H103.404V26.5H100.236V14.644ZM110.269 26.836C108.973 26.836 107.941 26.492 107.173 25.804C106.421 25.1 106.045 24.076 106.045 22.732V14.644H109.213V21.604C109.213 22.372 109.413 22.948 109.813 23.332C110.229 23.716 110.781 23.908 111.469 23.908C112.253 23.908 112.893 23.628 113.389 23.068C113.901 22.492 114.157 21.724 114.157 20.764V14.644H117.325V26.5H114.157V25.036C113.725 25.58 113.157 26.02 112.453 26.356C111.765 26.676 111.037 26.836 110.269 26.836ZM120.111 14.644H123.279V16.108C123.647 15.58 124.183 15.148 124.887 14.812C125.591 14.476 126.303 14.308 127.023 14.308C127.839 14.308 128.543 14.452 129.135 14.74C129.743 15.012 130.199 15.428 130.503 15.988C131.031 15.428 131.623 15.012 132.279 14.74C132.951 14.452 133.719 14.308 134.583 14.308C135.735 14.308 136.655 14.644 137.343 15.316C138.031 15.988 138.375 16.908 138.375 18.076V26.5H135.207V19.348C135.207 18.644 135.047 18.116 134.727 17.764C134.423 17.412 133.975 17.236 133.383 17.236C132.679 17.236 132.079 17.508 131.583 18.052C131.087 18.58 130.839 19.268 130.839 20.116V26.5H127.671V19.348C127.671 17.94 127.055 17.236 125.823 17.236C125.119 17.236 124.519 17.516 124.023 18.076C123.527 18.636 123.279 19.356 123.279 20.236V26.5H120.111V14.644Z" fill="#090712"/>
<path d="M25.9629 3.72221L15.5979 13.949C15.0544 14.4853 15.2892 15.4116 16.011 15.6608C29.4017 20.2844 22.0187 28.2712 18.0598 32.67C17.4645 33.3314 18.0007 34.2399 18.8653 34.0296C30.2679 31.2554 34 22.636 34 17.2385C34 10.9321 30.2002 6.1254 27.2523 3.65276C26.8721 3.33389 26.3162 3.37371 25.9629 3.72221Z" fill="#0E1552"/>
<path d="M9.93215 33.9451L17.7151 25.4135C18.2225 24.8572 17.9632 23.9344 17.2753 23.628C14.9776 22.6047 11.8002 20.3859 10.4711 16.5903C8.58159 11.194 15.2321 6.24111 19.6152 2.1325C20.1924 1.59147 19.8977 0.660493 19.1103 0.583985C8.93105 -0.405083 0.512768 7.45436 0.0191955 18.2185C-0.372519 26.7612 5.32208 32.1595 8.76413 34.1455C9.14954 34.3678 9.63227 34.2738 9.93215 33.9451Z" fill="#603EFF"/>
</svg>
