<svg width="30" height="30" viewBox="0 0 30 30" fill="none" xmlns="http://www.w3.org/2000/svg">
<rect opacity="0.8" x="0.5" y="29.5" width="29" height="29" rx="14.5" transform="rotate(-90 0.5 29.5)" stroke="#3B3945"/>
<path d="M15.1901 8C11.3531 8 9.3125 10.4589 9.3125 13.14C9.3125 14.3834 10.0073 15.934 11.1195 16.4258C11.2883 16.5019 11.3802 16.4695 11.4178 16.3129C11.4511 16.1939 11.5972 15.6207 11.6681 15.3503C11.69 15.2637 11.6786 15.1884 11.6086 15.1071C11.2393 14.6801 10.9462 13.9021 10.9462 13.1724C10.9462 11.3024 12.4329 9.48669 14.9626 9.48669C17.1502 9.48669 18.6807 10.9078 18.6807 12.9405C18.6807 15.2375 17.4652 16.8265 15.8858 16.8265C15.0116 16.8265 14.3606 16.1405 14.5671 15.2917C14.8165 14.281 15.3056 13.1942 15.3056 12.4653C15.3056 11.8117 14.9364 11.2709 14.1821 11.2709C13.2922 11.2709 12.5703 12.1521 12.5703 13.3351C12.5703 14.0868 12.8363 14.5943 12.8363 14.5943C12.8363 14.5943 11.956 18.1505 11.7924 18.8146C11.5158 19.939 11.83 21.76 11.8571 21.9166C11.8737 22.0033 11.9709 22.0304 12.0251 21.9595C12.1118 21.8457 13.1758 20.3276 13.4742 19.2303C13.5827 18.8304 14.0281 17.2089 14.0281 17.2089C14.3212 17.7383 15.1674 18.182 16.0687 18.182C18.7498 18.182 20.6871 15.8255 20.6871 12.9011C20.6775 10.0975 18.2782 8 15.1901 8Z" fill="white"/>
</svg>
