<svg width="20" height="20" viewBox="0 0 20 20" fill="none" xmlns="http://www.w3.org/2000/svg">
<path d="M10.1334 9.05829C10.05 9.04996 9.95005 9.04996 9.85838 9.05829C7.87505 8.99163 6.30005 7.36663 6.30005 5.36663C6.30005 3.32496 7.95005 1.66663 10 1.66663C12.0417 1.66663 13.7 3.32496 13.7 5.36663C13.6917 7.36663 12.1167 8.99163 10.1334 9.05829Z" stroke="#6B6974" stroke-opacity="0.7" stroke-width="1.5" stroke-linecap="round" stroke-linejoin="round"/>
<path d="M5.9666 12.1333C3.94993 13.4833 3.94993 15.6833 5.9666 17.0249C8.25827 18.5583 12.0166 18.5583 14.3083 17.0249C16.3249 15.6749 16.3249 13.4749 14.3083 12.1333C12.0249 10.6083 8.2666 10.6083 5.9666 12.1333Z" stroke="#6B6974" stroke-opacity="0.7" stroke-width="1.5" stroke-linecap="round" stroke-linejoin="round"/>
</svg>
