<svg width="56" height="56" viewBox="0 0 56 56" fill="none" xmlns="http://www.w3.org/2000/svg">
<circle cx="28" cy="28" r="28" fill="#EEEDFF"/>
<path d="M32.5441 36C31.5073 36 30.5835 35.5069 29.7661 34.514C28.9486 33.5277 28.5432 32.2216 28.5432 30.5956C28.5432 29.2162 29.2876 27.1037 30.7696 24.2649C32.2583 21.4194 33.3616 20 34.086 20C34.4914 20 34.6974 20.2132 34.6974 20.6331C34.6974 20.7464 34.2721 21.666 33.428 23.3986C32.5773 25.1312 32.1586 26.4906 32.1586 27.4636C32.1586 28.2166 32.6372 28.8363 33.6008 29.3161C34.5579 29.7959 35.2025 30.2957 35.5215 30.8155C35.8405 31.3353 36 31.9017 36 32.5015C36 33.5877 35.681 34.4473 35.043 35.0671C34.3851 35.6868 33.561 36 32.5441 36Z" fill="#5E81F4"/>
<path d="M23.0009 36C21.9641 36 21.0337 35.5069 20.2229 34.514C19.4054 33.5277 19 32.2216 19 30.5956C19 29.2162 19.7443 27.1037 21.2264 24.2649C22.7085 21.4194 23.8183 20 24.5361 20C24.9415 20 25.1475 20.2132 25.1475 20.6331C25.1475 20.7464 24.7222 21.666 23.8782 23.3986C23.0275 25.1312 22.6088 26.4906 22.6088 27.4636C22.6088 28.2166 23.0873 28.8363 24.0509 29.3161C25.008 29.7959 25.6526 30.2957 25.9716 30.8155C26.2906 31.3353 26.4502 31.9017 26.4502 32.5015C26.4502 33.5877 26.1311 34.4473 25.4931 35.0671C24.8551 35.6868 24.0177 36 23.0009 36Z" fill="#5E81F4"/>
</svg>
