<svg width="30" height="30" viewBox="0 0 30 30" fill="none" xmlns="http://www.w3.org/2000/svg">
<rect y="30" width="30" height="30" rx="15" transform="rotate(-90 0 30)" stroke="#3B3945"/>
<path d="M12.5613 20.2566C17.5144 20.2566 20.2231 16.1531 20.2231 12.5949C20.2231 12.4783 20.2206 12.3623 20.2154 12.2469C20.7412 11.8667 21.1981 11.3924 21.5587 10.8524C21.0762 11.067 20.5569 11.2112 20.0123 11.2765C20.5682 10.943 20.995 10.4156 21.1963 9.78698C20.6761 10.0954 20.0998 10.3195 19.4865 10.4406C18.9951 9.91717 18.2954 9.58984 17.5208 9.58984C16.0338 9.58984 14.8278 10.7957 14.8278 12.2823C14.8278 12.4937 14.8515 12.6992 14.8976 12.8963C12.6596 12.7837 10.6749 11.7122 9.34693 10.0828C9.11577 10.4807 8.98237 10.943 8.98237 11.4363C8.98237 12.3705 9.45778 13.1954 10.1806 13.6778C9.73887 13.6642 9.3239 13.5429 8.9611 13.341C8.9607 13.3524 8.9607 13.3634 8.9607 13.3754C8.9607 14.6795 9.88889 15.7684 11.1212 16.0152C10.8949 16.0767 10.6567 16.1099 10.4111 16.1099C10.2379 16.1099 10.069 16.0928 9.90494 16.0613C10.2478 17.1312 11.2419 17.9098 12.4205 17.9316C11.4988 18.654 10.3378 19.0843 9.07596 19.0843C8.85892 19.0843 8.64437 19.0719 8.43359 19.047C9.62537 19.8109 11.0405 20.2567 12.5614 20.2567" fill="white"/>
</svg>
