<svg width="80" height="80" viewBox="0 0 80 80" fill="none" xmlns="http://www.w3.org/2000/svg">
<rect width="80" height="80" rx="40" fill="white"/>
<path d="M25.2833 32.4004L40 40.917L54.6166 32.4503" stroke="#603EFF" stroke-width="2.5" stroke-linecap="round" stroke-linejoin="round"/>
<path d="M40 56.0171V40.9004" stroke="#603EFF" stroke-width="2.5" stroke-linecap="round" stroke-linejoin="round"/>
<path d="M56.0166 41.3836V35.2835C56.0166 32.9835 54.3667 30.1835 52.35 29.0669L43.45 24.1335C41.55 23.0668 38.45 23.0668 36.55 24.1335L27.65 29.0669C25.6333 30.1835 23.9833 32.9835 23.9833 35.2835V44.7169C23.9833 47.0169 25.6333 49.8169 27.65 50.9335L36.55 55.8669C37.5 56.4002 38.75 56.6669 40 56.6669C41.25 56.6669 42.5 56.4002 43.45 55.8669" stroke="#603EFF" stroke-width="2.5" stroke-linecap="round" stroke-linejoin="round"/>
<path d="M52 55.6667C54.9456 55.6667 57.3333 53.2789 57.3333 50.3334C57.3333 47.3878 54.9456 45 52 45C49.0545 45 46.6667 47.3878 46.6667 50.3334C46.6667 53.2789 49.0545 55.6667 52 55.6667Z" stroke="#603EFF" stroke-width="2.5" stroke-linecap="round" stroke-linejoin="round"/>
<path d="M58.3334 56.6667L56.6667 55" stroke="#603EFF" stroke-width="2.5" stroke-linecap="round" stroke-linejoin="round"/>
</svg>
