<svg width="34" height="35" viewBox="0 0 34 35" fill="none" xmlns="http://www.w3.org/2000/svg">
<path d="M25.9629 3.72221L15.5979 13.949C15.0544 14.4853 15.2892 15.4116 16.011 15.6608C29.4017 20.2844 22.0187 28.2712 18.0598 32.67C17.4645 33.3314 18.0007 34.2399 18.8653 34.0296C30.2679 31.2554 34 22.636 34 17.2385C34 10.9321 30.2002 6.1254 27.2523 3.65276C26.8721 3.33389 26.3162 3.37371 25.9629 3.72221Z" fill="#0E1552"/>
<path d="M9.93215 33.9451L17.7151 25.4135C18.2225 24.8572 17.9632 23.9344 17.2753 23.628C14.9776 22.6047 11.8002 20.3859 10.4711 16.5903C8.58159 11.194 15.2321 6.24111 19.6152 2.1325C20.1924 1.59147 19.8977 0.660493 19.1103 0.583985C8.93105 -0.405083 0.512768 7.45436 0.0191955 18.2185C-0.372519 26.7612 5.32208 32.1595 8.76413 34.1455C9.14954 34.3678 9.63227 34.2738 9.93215 33.9451Z" fill="#603EFF"/>
</svg>
